<svg width="1389" height="736" viewBox="0 0 1389 736" fill="none" xmlns="http://www.w3.org/2000/svg">
<path fill-rule="evenodd" clip-rule="evenodd" d="M122 99.25C122.14 99.2499 122.277 99.289 122.396 99.3629C122.515 99.4368 122.611 99.5425 122.673 99.668L124.555 103.483L128.765 104.095C128.903 104.115 129.034 104.174 129.141 104.264C129.248 104.354 129.327 104.472 129.37 104.605C129.414 104.738 129.419 104.881 129.385 105.017C129.352 105.153 129.281 105.276 129.181 105.374L126.135 108.344L126.854 112.536C126.878 112.674 126.862 112.816 126.81 112.945C126.757 113.075 126.669 113.187 126.556 113.27C126.443 113.352 126.309 113.401 126.169 113.411C126.03 113.421 125.89 113.392 125.766 113.327L122 111.347L118.234 113.327C118.11 113.392 117.971 113.421 117.831 113.411C117.692 113.401 117.558 113.352 117.445 113.27C117.332 113.188 117.244 113.076 117.191 112.946C117.138 112.817 117.123 112.675 117.146 112.537L117.866 108.343L114.818 105.374C114.718 105.276 114.647 105.152 114.613 105.016C114.579 104.88 114.584 104.738 114.628 104.605C114.671 104.471 114.751 104.353 114.858 104.263C114.965 104.172 115.095 104.114 115.234 104.094L119.444 103.483L121.327 99.668C121.389 99.5425 121.485 99.4368 121.604 99.3629C121.723 99.289 121.86 99.2499 122 99.25V99.25Z" fill="#D3AC53"/>
<path fill-rule="evenodd" clip-rule="evenodd" d="M24 9.25C24.14 9.24991 24.2773 9.28901 24.3962 9.36289C24.5151 9.43676 24.611 9.54245 24.673 9.668L26.555 13.483L30.765 14.095C30.9035 14.1151 31.0336 14.1736 31.1405 14.2637C31.2475 14.3539 31.3272 14.4722 31.3704 14.6052C31.4137 14.7383 31.4189 14.8808 31.3854 15.0167C31.352 15.1525 31.2812 15.2763 31.181 15.374L28.135 18.344L28.854 22.536C28.8777 22.6739 28.8624 22.8157 28.8097 22.9454C28.757 23.0751 28.6691 23.1874 28.5559 23.2697C28.4427 23.352 28.3087 23.401 28.1691 23.4111C28.0295 23.4212 27.8899 23.3921 27.766 23.327L24 21.347L20.234 23.327C20.1102 23.392 19.9707 23.4211 19.8312 23.411C19.6917 23.4009 19.5579 23.352 19.4447 23.2699C19.3315 23.1877 19.2436 23.0755 19.1908 22.946C19.138 22.8165 19.1225 22.6749 19.146 22.537L19.866 18.343L16.818 15.374C16.7176 15.2763 16.6465 15.1525 16.6129 15.0165C16.5792 14.8805 16.5843 14.7378 16.6276 14.6045C16.6709 14.4713 16.7507 14.3528 16.8579 14.2626C16.965 14.1724 17.0953 14.114 17.234 14.094L21.444 13.483L23.327 9.668C23.389 9.54245 23.4849 9.43676 23.6038 9.36289C23.7228 9.28901 23.86 9.24991 24 9.25V9.25Z" fill="#D3AC53"/>
<g clip-path="url(#clip0_1_97)">
<path fill-rule="evenodd" clip-rule="evenodd" d="M340 107.125C340.07 107.125 340.139 107.145 340.198 107.181C340.258 107.218 340.306 107.271 340.336 107.334L341.277 109.241L343.382 109.547C343.452 109.558 343.517 109.587 343.57 109.632C343.624 109.677 343.664 109.736 343.685 109.803C343.707 109.869 343.709 109.94 343.693 110.008C343.676 110.076 343.641 110.138 343.59 110.187L342.067 111.672L342.427 113.768C342.439 113.837 342.431 113.908 342.405 113.973C342.378 114.038 342.335 114.094 342.278 114.135C342.221 114.176 342.154 114.2 342.085 114.206C342.015 114.211 341.945 114.196 341.883 114.163L340 113.174L338.117 114.163C338.055 114.196 337.985 114.211 337.916 114.206C337.846 114.2 337.779 114.176 337.722 114.135C337.666 114.094 337.622 114.038 337.595 113.973C337.569 113.908 337.561 113.837 337.573 113.768L337.933 111.672L336.409 110.187C336.359 110.138 336.323 110.076 336.306 110.008C336.29 109.94 336.292 109.869 336.314 109.802C336.335 109.736 336.375 109.676 336.429 109.631C336.483 109.586 336.548 109.557 336.617 109.547L338.722 109.241L339.663 107.334C339.694 107.271 339.742 107.218 339.802 107.181C339.861 107.145 339.93 107.125 340 107.125V107.125Z" fill="#D3AC53"/>
</g>
<g clip-path="url(#clip1_1_97)">
<path fill-rule="evenodd" clip-rule="evenodd" d="M965 9.125C965.07 9.12495 965.139 9.14451 965.198 9.18144C965.258 9.21838 965.306 9.27123 965.337 9.334L966.278 11.2415L968.383 11.5475C968.452 11.5576 968.517 11.5868 968.57 11.6319C968.624 11.6769 968.664 11.7361 968.685 11.8026C968.707 11.8691 968.709 11.9404 968.693 12.0083C968.676 12.0763 968.641 12.1381 968.591 12.187L967.068 13.672L967.427 15.768C967.439 15.837 967.431 15.9079 967.405 15.9727C967.379 16.0375 967.335 16.0937 967.278 16.1348C967.221 16.176 967.154 16.2005 967.085 16.2055C967.015 16.2106 966.945 16.196 966.883 16.1635L965 15.1735L963.117 16.1635C963.055 16.196 962.985 16.2106 962.916 16.2055C962.846 16.2005 962.779 16.176 962.722 16.1349C962.666 16.0938 962.622 16.0378 962.595 15.973C962.569 15.9083 962.561 15.8374 962.573 15.7685L962.933 13.6715L961.409 12.187C961.359 12.1382 961.323 12.0762 961.306 12.0082C961.29 11.9402 961.292 11.8689 961.314 11.8023C961.335 11.7356 961.375 11.6764 961.429 11.6313C961.483 11.5862 961.548 11.557 961.617 11.547L963.722 11.2415L964.664 9.334C964.695 9.27123 964.742 9.21838 964.802 9.18144C964.861 9.14451 964.93 9.12495 965 9.125V9.125Z" fill="#D3AC53"/>
</g>
<g clip-path="url(#clip2_1_97)">
<path fill-rule="evenodd" clip-rule="evenodd" d="M1154 149.125C1154.07 149.125 1154.14 149.145 1154.2 149.181C1154.26 149.218 1154.31 149.271 1154.34 149.334L1155.28 151.241L1157.38 151.547C1157.45 151.558 1157.52 151.587 1157.57 151.632C1157.62 151.677 1157.66 151.736 1157.69 151.803C1157.71 151.869 1157.71 151.94 1157.69 152.008C1157.68 152.076 1157.64 152.138 1157.59 152.187L1156.07 153.672L1156.43 155.768C1156.44 155.837 1156.43 155.908 1156.4 155.973C1156.38 156.038 1156.33 156.094 1156.28 156.135C1156.22 156.176 1156.15 156.2 1156.08 156.206C1156.01 156.211 1155.94 156.196 1155.88 156.163L1154 155.174L1152.12 156.163C1152.06 156.196 1151.99 156.211 1151.92 156.206C1151.85 156.2 1151.78 156.176 1151.72 156.135C1151.67 156.094 1151.62 156.038 1151.6 155.973C1151.57 155.908 1151.56 155.837 1151.57 155.768L1151.93 153.672L1150.41 152.187C1150.36 152.138 1150.32 152.076 1150.31 152.008C1150.29 151.94 1150.29 151.869 1150.31 151.802C1150.34 151.736 1150.38 151.676 1150.43 151.631C1150.48 151.586 1150.55 151.557 1150.62 151.547L1152.72 151.241L1153.66 149.334C1153.69 149.271 1153.74 149.218 1153.8 149.181C1153.86 149.145 1153.93 149.125 1154 149.125V149.125Z" fill="#D3AC53"/>
</g>
<g clip-path="url(#clip3_1_97)">
<path fill-rule="evenodd" clip-rule="evenodd" d="M119 283.125C119.07 283.125 119.139 283.145 119.198 283.181C119.258 283.218 119.306 283.271 119.336 283.334L120.277 285.241L122.382 285.547C122.452 285.558 122.517 285.587 122.57 285.632C122.624 285.677 122.664 285.736 122.685 285.803C122.707 285.869 122.709 285.94 122.693 286.008C122.676 286.076 122.641 286.138 122.59 286.187L121.067 287.672L121.427 289.768C121.439 289.837 121.431 289.908 121.405 289.973C121.378 290.038 121.335 290.094 121.278 290.135C121.221 290.176 121.154 290.2 121.085 290.206C121.015 290.211 120.945 290.196 120.883 290.163L119 289.174L117.117 290.163C117.055 290.196 116.985 290.211 116.916 290.206C116.846 290.2 116.779 290.176 116.722 290.135C116.666 290.094 116.622 290.038 116.595 289.973C116.569 289.908 116.561 289.837 116.573 289.768L116.933 287.672L115.409 286.187C115.359 286.138 115.323 286.076 115.306 286.008C115.29 285.94 115.292 285.869 115.314 285.802C115.335 285.736 115.375 285.676 115.429 285.631C115.483 285.586 115.548 285.557 115.617 285.547L117.722 285.241L118.663 283.334C118.694 283.271 118.742 283.218 118.802 283.181C118.861 283.145 118.93 283.125 119 283.125V283.125Z" fill="#D3AC53"/>
</g>
<g clip-path="url(#clip4_1_97)">
<path fill-rule="evenodd" clip-rule="evenodd" d="M36 184.125C36.07 184.125 36.1386 184.145 36.1981 184.181C36.2576 184.218 36.3055 184.271 36.3365 184.334L37.2775 186.241L39.3825 186.547C39.4517 186.558 39.5168 186.587 39.5703 186.632C39.6237 186.677 39.6636 186.736 39.6852 186.803C39.7068 186.869 39.7094 186.94 39.6927 187.008C39.676 187.076 39.6406 187.138 39.5905 187.187L38.0675 188.672L38.427 190.768C38.4388 190.837 38.4312 190.908 38.4048 190.973C38.3785 191.038 38.3345 191.094 38.2779 191.135C38.2213 191.176 38.1543 191.2 38.0845 191.206C38.0148 191.211 37.9449 191.196 37.883 191.163L36 190.174L34.117 191.163C34.0551 191.196 33.9853 191.211 33.9156 191.206C33.8458 191.2 33.7789 191.176 33.7223 191.135C33.6658 191.094 33.6218 191.038 33.5954 190.973C33.569 190.908 33.5612 190.837 33.573 190.768L33.933 188.672L32.409 187.187C32.3588 187.138 32.3232 187.076 32.3064 187.008C32.2896 186.94 32.2922 186.869 32.3138 186.802C32.3355 186.736 32.3753 186.676 32.4289 186.631C32.4825 186.586 32.5477 186.557 32.617 186.547L34.722 186.241L35.6635 184.334C35.6945 184.271 35.7424 184.218 35.8019 184.181C35.8614 184.145 35.93 184.125 36 184.125V184.125Z" fill="#D3AC53"/>
</g>
<g clip-path="url(#clip5_1_97)">
<path fill-rule="evenodd" clip-rule="evenodd" d="M803 8.125C803.07 8.12495 803.139 8.14451 803.198 8.18144C803.258 8.21838 803.306 8.27123 803.336 8.334L804.277 10.2415L806.382 10.5475C806.452 10.5576 806.517 10.5868 806.57 10.6319C806.624 10.6769 806.664 10.7361 806.685 10.8026C806.707 10.8691 806.709 10.9404 806.693 11.0083C806.676 11.0763 806.641 11.1381 806.59 11.187L805.067 12.672L805.427 14.768C805.439 14.837 805.431 14.9079 805.405 14.9727C805.378 15.0375 805.335 15.0937 805.278 15.1348C805.221 15.176 805.154 15.2005 805.085 15.2055C805.015 15.2106 804.945 15.196 804.883 15.1635L803 14.1735L801.117 15.1635C801.055 15.196 800.985 15.2106 800.916 15.2055C800.846 15.2005 800.779 15.176 800.722 15.1349C800.666 15.0938 800.622 15.0378 800.595 14.973C800.569 14.9083 800.561 14.8374 800.573 14.7685L800.933 12.6715L799.409 11.187C799.359 11.1382 799.323 11.0762 799.306 11.0082C799.29 10.9402 799.292 10.8689 799.314 10.8023C799.335 10.7356 799.375 10.6764 799.429 10.6313C799.483 10.5862 799.548 10.557 799.617 10.547L801.722 10.2415L802.663 8.334C802.694 8.27123 802.742 8.21838 802.802 8.18144C802.861 8.14451 802.93 8.12495 803 8.125V8.125Z" fill="#D3AC53"/>
</g>
<g clip-path="url(#clip6_1_97)">
<path fill-rule="evenodd" clip-rule="evenodd" d="M175 511.125C175.07 511.125 175.139 511.145 175.198 511.181C175.258 511.218 175.306 511.271 175.337 511.334L176.278 513.241L178.383 513.547C178.452 513.558 178.517 513.587 178.57 513.632C178.624 513.677 178.664 513.736 178.685 513.803C178.707 513.869 178.709 513.94 178.693 514.008C178.676 514.076 178.641 514.138 178.591 514.187L177.068 515.672L177.427 517.768C177.439 517.837 177.431 517.908 177.405 517.973C177.378 518.038 177.335 518.094 177.278 518.135C177.221 518.176 177.154 518.2 177.085 518.206C177.015 518.211 176.945 518.196 176.883 518.163L175 517.174L173.117 518.163C173.055 518.196 172.985 518.211 172.916 518.206C172.846 518.2 172.779 518.176 172.722 518.135C172.666 518.094 172.622 518.038 172.595 517.973C172.569 517.908 172.561 517.837 172.573 517.768L172.933 515.672L171.409 514.187C171.359 514.138 171.323 514.076 171.306 514.008C171.29 513.94 171.292 513.869 171.314 513.802C171.335 513.736 171.375 513.676 171.429 513.631C171.483 513.586 171.548 513.557 171.617 513.547L173.722 513.241L174.664 511.334C174.694 511.271 174.742 511.218 174.802 511.181C174.861 511.145 174.93 511.125 175 511.125V511.125Z" fill="#D3AC53"/>
</g>
<g clip-path="url(#clip7_1_97)">
<path fill-rule="evenodd" clip-rule="evenodd" d="M12 545.125C12.07 545.125 12.1386 545.145 12.1981 545.181C12.2576 545.218 12.3055 545.271 12.3365 545.334L13.2775 547.241L15.3825 547.547C15.4517 547.558 15.5168 547.587 15.5703 547.632C15.6237 547.677 15.6636 547.736 15.6852 547.803C15.7068 547.869 15.7094 547.94 15.6927 548.008C15.676 548.076 15.6406 548.138 15.5905 548.187L14.0675 549.672L14.427 551.768C14.4388 551.837 14.4312 551.908 14.4048 551.973C14.3785 552.038 14.3345 552.094 14.2779 552.135C14.2213 552.176 14.1543 552.2 14.0845 552.206C14.0148 552.211 13.9449 552.196 13.883 552.163L12 551.174L10.117 552.163C10.0551 552.196 9.98532 552.211 9.91559 552.206C9.84585 552.2 9.77891 552.176 9.72233 552.135C9.66575 552.094 9.62179 552.038 9.5954 551.973C9.56901 551.908 9.56125 551.837 9.57299 551.768L9.93299 549.672L8.40899 548.187C8.35877 548.138 8.32324 548.076 8.30642 548.008C8.28959 547.94 8.29215 547.869 8.3138 547.802C8.33545 547.736 8.37533 547.676 8.42892 547.631C8.4825 547.586 8.54766 547.557 8.61699 547.547L10.722 547.241L11.6635 545.334C11.6945 545.271 11.7424 545.218 11.8019 545.181C11.8614 545.145 11.93 545.125 12 545.125V545.125Z" fill="#D3AC53"/>
</g>
<g clip-path="url(#clip8_1_97)">
<path fill-rule="evenodd" clip-rule="evenodd" d="M3.99999 316.125C4.07 316.125 4.13862 316.145 4.19809 316.181C4.25756 316.218 4.3055 316.271 4.33649 316.334L5.27749 318.241L7.38249 318.547C7.45172 318.558 7.51676 318.587 7.57026 318.632C7.62375 318.677 7.66357 318.736 7.6852 318.803C7.70684 318.869 7.70944 318.94 7.6927 319.008C7.67597 319.076 7.64056 319.138 7.59049 319.187L6.06749 320.672L6.42699 322.768C6.43885 322.837 6.43117 322.908 6.40483 322.973C6.37848 323.038 6.33453 323.094 6.27793 323.135C6.22133 323.176 6.15434 323.2 6.08455 323.206C6.01476 323.211 5.94494 323.196 5.88299 323.163L3.99999 322.174L2.11699 323.163C2.05508 323.196 1.98532 323.211 1.91559 323.206C1.84585 323.2 1.77891 323.176 1.72233 323.135C1.66575 323.094 1.62179 323.038 1.5954 322.973C1.56901 322.908 1.56125 322.837 1.57299 322.768L1.93299 320.672L0.408991 319.187C0.358774 319.138 0.32324 319.076 0.306417 319.008C0.289593 318.94 0.292152 318.869 0.313803 318.802C0.335454 318.736 0.375332 318.676 0.428919 318.631C0.482505 318.586 0.547656 318.557 0.616991 318.547L2.72199 318.241L3.66349 316.334C3.69448 316.271 3.74242 316.218 3.80189 316.181C3.86136 316.145 3.92998 316.125 3.99999 316.125V316.125Z" fill="#D3AC53"/>
</g>
<g clip-path="url(#clip9_1_97)">
<path fill-rule="evenodd" clip-rule="evenodd" d="M186 395.125C186.07 395.125 186.139 395.145 186.198 395.181C186.258 395.218 186.306 395.271 186.337 395.334L187.278 397.241L189.383 397.547C189.452 397.558 189.517 397.587 189.57 397.632C189.624 397.677 189.664 397.736 189.685 397.803C189.707 397.869 189.709 397.94 189.693 398.008C189.676 398.076 189.641 398.138 189.591 398.187L188.068 399.672L188.427 401.768C188.439 401.837 188.431 401.908 188.405 401.973C188.378 402.038 188.335 402.094 188.278 402.135C188.221 402.176 188.154 402.2 188.085 402.206C188.015 402.211 187.945 402.196 187.883 402.163L186 401.174L184.117 402.163C184.055 402.196 183.985 402.211 183.916 402.206C183.846 402.2 183.779 402.176 183.722 402.135C183.666 402.094 183.622 402.038 183.595 401.973C183.569 401.908 183.561 401.837 183.573 401.768L183.933 399.672L182.409 398.187C182.359 398.138 182.323 398.076 182.306 398.008C182.29 397.94 182.292 397.869 182.314 397.802C182.335 397.736 182.375 397.676 182.429 397.631C182.483 397.586 182.548 397.557 182.617 397.547L184.722 397.241L185.664 395.334C185.694 395.271 185.742 395.218 185.802 395.181C185.861 395.145 185.93 395.125 186 395.125V395.125Z" fill="#D3AC53"/>
</g>
<g clip-path="url(#clip10_1_97)">
<path fill-rule="evenodd" clip-rule="evenodd" d="M490 35.125C490.07 35.125 490.139 35.1445 490.198 35.1814C490.258 35.2184 490.306 35.2712 490.336 35.334L491.277 37.2415L493.382 37.5475C493.452 37.5576 493.517 37.5868 493.57 37.6319C493.624 37.6769 493.664 37.7361 493.685 37.8026C493.707 37.8691 493.709 37.9404 493.693 38.0083C493.676 38.0763 493.641 38.1381 493.59 38.187L492.067 39.672L492.427 41.768C492.439 41.837 492.431 41.9079 492.405 41.9727C492.378 42.0375 492.335 42.0937 492.278 42.1348C492.221 42.176 492.154 42.2005 492.085 42.2055C492.015 42.2106 491.945 42.196 491.883 42.1635L490 41.1735L488.117 42.1635C488.055 42.196 487.985 42.2106 487.916 42.2055C487.846 42.2005 487.779 42.176 487.722 42.1349C487.666 42.0938 487.622 42.0378 487.595 41.973C487.569 41.9083 487.561 41.8374 487.573 41.7685L487.933 39.6715L486.409 38.187C486.359 38.1382 486.323 38.0762 486.306 38.0082C486.29 37.9402 486.292 37.8689 486.314 37.8023C486.335 37.7356 486.375 37.6764 486.429 37.6313C486.483 37.5862 486.548 37.557 486.617 37.547L488.722 37.2415L489.663 35.334C489.694 35.2712 489.742 35.2184 489.802 35.1814C489.861 35.1445 489.93 35.125 490 35.125V35.125Z" fill="#D3AC53"/>
</g>
<g clip-path="url(#clip11_1_97)">
<path fill-rule="evenodd" clip-rule="evenodd" d="M339 295.125C339.07 295.125 339.139 295.145 339.198 295.181C339.258 295.218 339.306 295.271 339.336 295.334L340.277 297.241L342.382 297.547C342.452 297.558 342.517 297.587 342.57 297.632C342.624 297.677 342.664 297.736 342.685 297.803C342.707 297.869 342.709 297.94 342.693 298.008C342.676 298.076 342.641 298.138 342.59 298.187L341.067 299.672L341.427 301.768C341.439 301.837 341.431 301.908 341.405 301.973C341.378 302.038 341.335 302.094 341.278 302.135C341.221 302.176 341.154 302.2 341.085 302.206C341.015 302.211 340.945 302.196 340.883 302.163L339 301.174L337.117 302.163C337.055 302.196 336.985 302.211 336.916 302.206C336.846 302.2 336.779 302.176 336.722 302.135C336.666 302.094 336.622 302.038 336.595 301.973C336.569 301.908 336.561 301.837 336.573 301.768L336.933 299.672L335.409 298.187C335.359 298.138 335.323 298.076 335.306 298.008C335.29 297.94 335.292 297.869 335.314 297.802C335.335 297.736 335.375 297.676 335.429 297.631C335.483 297.586 335.548 297.557 335.617 297.547L337.722 297.241L338.663 295.334C338.694 295.271 338.742 295.218 338.802 295.181C338.861 295.145 338.93 295.125 339 295.125V295.125Z" fill="#D3AC53"/>
</g>
<g clip-path="url(#clip12_1_97)">
<path fill-rule="evenodd" clip-rule="evenodd" d="M79 651.125C79.07 651.125 79.1386 651.145 79.1981 651.181C79.2576 651.218 79.3055 651.271 79.3365 651.334L80.2775 653.241L82.3825 653.547C82.4517 653.558 82.5168 653.587 82.5703 653.632C82.6237 653.677 82.6636 653.736 82.6852 653.803C82.7068 653.869 82.7094 653.94 82.6927 654.008C82.676 654.076 82.6406 654.138 82.5905 654.187L81.0675 655.672L81.427 657.768C81.4388 657.837 81.4312 657.908 81.4048 657.973C81.3785 658.038 81.3345 658.094 81.2779 658.135C81.2213 658.176 81.1543 658.2 81.0845 658.206C81.0148 658.211 80.9449 658.196 80.883 658.163L79 657.174L77.117 658.163C77.0551 658.196 76.9853 658.211 76.9156 658.206C76.8458 658.2 76.7789 658.176 76.7223 658.135C76.6658 658.094 76.6218 658.038 76.5954 657.973C76.569 657.908 76.5612 657.837 76.573 657.768L76.933 655.672L75.409 654.187C75.3588 654.138 75.3232 654.076 75.3064 654.008C75.2896 653.94 75.2922 653.869 75.3138 653.802C75.3355 653.736 75.3753 653.676 75.4289 653.631C75.4825 653.586 75.5477 653.557 75.617 653.547L77.722 653.241L78.6635 651.334C78.6945 651.271 78.7424 651.218 78.8019 651.181C78.8614 651.145 78.93 651.125 79 651.125V651.125Z" fill="#D3AC53"/>
</g>
<g clip-path="url(#clip13_1_97)">
<path fill-rule="evenodd" clip-rule="evenodd" d="M821 89.125C821.07 89.125 821.139 89.1445 821.198 89.1814C821.258 89.2184 821.306 89.2712 821.336 89.334L822.277 91.2415L824.382 91.5475C824.452 91.5576 824.517 91.5868 824.57 91.6319C824.624 91.6769 824.664 91.7361 824.685 91.8026C824.707 91.8691 824.709 91.9404 824.693 92.0083C824.676 92.0763 824.641 92.1381 824.59 92.187L823.067 93.672L823.427 95.768C823.439 95.837 823.431 95.9079 823.405 95.9727C823.378 96.0375 823.335 96.0937 823.278 96.1348C823.221 96.176 823.154 96.2005 823.085 96.2055C823.015 96.2106 822.945 96.196 822.883 96.1635L821 95.1735L819.117 96.1635C819.055 96.196 818.985 96.2106 818.916 96.2055C818.846 96.2005 818.779 96.176 818.722 96.1349C818.666 96.0938 818.622 96.0378 818.595 95.973C818.569 95.9083 818.561 95.8374 818.573 95.7685L818.933 93.6715L817.409 92.187C817.359 92.1382 817.323 92.0762 817.306 92.0082C817.29 91.9402 817.292 91.8689 817.314 91.8023C817.335 91.7356 817.375 91.6764 817.429 91.6313C817.483 91.5862 817.548 91.557 817.617 91.547L819.722 91.2415L820.663 89.334C820.694 89.2712 820.742 89.2184 820.802 89.1814C820.861 89.1445 820.93 89.125 821 89.125V89.125Z" fill="#D3AC53"/>
</g>
<g clip-path="url(#clip14_1_97)">
<path fill-rule="evenodd" clip-rule="evenodd" d="M1146 442.125C1146.07 442.125 1146.14 442.145 1146.2 442.181C1146.26 442.218 1146.31 442.271 1146.34 442.334L1147.28 444.241L1149.38 444.547C1149.45 444.558 1149.52 444.587 1149.57 444.632C1149.62 444.677 1149.66 444.736 1149.69 444.803C1149.71 444.869 1149.71 444.94 1149.69 445.008C1149.68 445.076 1149.64 445.138 1149.59 445.187L1148.07 446.672L1148.43 448.768C1148.44 448.837 1148.43 448.908 1148.4 448.973C1148.38 449.038 1148.33 449.094 1148.28 449.135C1148.22 449.176 1148.15 449.2 1148.08 449.206C1148.01 449.211 1147.94 449.196 1147.88 449.163L1146 448.174L1144.12 449.163C1144.06 449.196 1143.99 449.211 1143.92 449.206C1143.85 449.2 1143.78 449.176 1143.72 449.135C1143.67 449.094 1143.62 449.038 1143.6 448.973C1143.57 448.908 1143.56 448.837 1143.57 448.768L1143.93 446.672L1142.41 445.187C1142.36 445.138 1142.32 445.076 1142.31 445.008C1142.29 444.94 1142.29 444.869 1142.31 444.802C1142.34 444.736 1142.38 444.676 1142.43 444.631C1142.48 444.586 1142.55 444.557 1142.62 444.547L1144.72 444.241L1145.66 442.334C1145.69 442.271 1145.74 442.218 1145.8 442.181C1145.86 442.145 1145.93 442.125 1146 442.125V442.125Z" fill="#D3AC53"/>
</g>
<g clip-path="url(#clip15_1_97)">
<path fill-rule="evenodd" clip-rule="evenodd" d="M1226 283.125C1226.07 283.125 1226.14 283.145 1226.2 283.181C1226.26 283.218 1226.31 283.271 1226.34 283.334L1227.28 285.241L1229.38 285.547C1229.45 285.558 1229.52 285.587 1229.57 285.632C1229.62 285.677 1229.66 285.736 1229.69 285.803C1229.71 285.869 1229.71 285.94 1229.69 286.008C1229.68 286.076 1229.64 286.138 1229.59 286.187L1228.07 287.672L1228.43 289.768C1228.44 289.837 1228.43 289.908 1228.4 289.973C1228.38 290.038 1228.33 290.094 1228.28 290.135C1228.22 290.176 1228.15 290.2 1228.08 290.206C1228.01 290.211 1227.94 290.196 1227.88 290.163L1226 289.174L1224.12 290.163C1224.06 290.196 1223.99 290.211 1223.92 290.206C1223.85 290.2 1223.78 290.176 1223.72 290.135C1223.67 290.094 1223.62 290.038 1223.6 289.973C1223.57 289.908 1223.56 289.837 1223.57 289.768L1223.93 287.672L1222.41 286.187C1222.36 286.138 1222.32 286.076 1222.31 286.008C1222.29 285.94 1222.29 285.869 1222.31 285.802C1222.34 285.736 1222.38 285.676 1222.43 285.631C1222.48 285.586 1222.55 285.557 1222.62 285.547L1224.72 285.241L1225.66 283.334C1225.69 283.271 1225.74 283.218 1225.8 283.181C1225.86 283.145 1225.93 283.125 1226 283.125V283.125Z" fill="#D3AC53"/>
</g>
<g clip-path="url(#clip16_1_97)">
<path fill-rule="evenodd" clip-rule="evenodd" d="M1381 395.125C1381.07 395.125 1381.14 395.145 1381.2 395.181C1381.26 395.218 1381.31 395.271 1381.34 395.334L1382.28 397.241L1384.38 397.547C1384.45 397.558 1384.52 397.587 1384.57 397.632C1384.62 397.677 1384.66 397.736 1384.69 397.803C1384.71 397.869 1384.71 397.94 1384.69 398.008C1384.68 398.076 1384.64 398.138 1384.59 398.187L1383.07 399.672L1383.43 401.768C1383.44 401.837 1383.43 401.908 1383.4 401.973C1383.38 402.038 1383.33 402.094 1383.28 402.135C1383.22 402.176 1383.15 402.2 1383.08 402.206C1383.01 402.211 1382.94 402.196 1382.88 402.163L1381 401.174L1379.12 402.163C1379.06 402.196 1378.99 402.211 1378.92 402.206C1378.85 402.2 1378.78 402.176 1378.72 402.135C1378.67 402.094 1378.62 402.038 1378.6 401.973C1378.57 401.908 1378.56 401.837 1378.57 401.768L1378.93 399.672L1377.41 398.187C1377.36 398.138 1377.32 398.076 1377.31 398.008C1377.29 397.94 1377.29 397.869 1377.31 397.802C1377.34 397.736 1377.38 397.676 1377.43 397.631C1377.48 397.586 1377.55 397.557 1377.62 397.547L1379.72 397.241L1380.66 395.334C1380.69 395.271 1380.74 395.218 1380.8 395.181C1380.86 395.145 1380.93 395.125 1381 395.125V395.125Z" fill="#D3AC53"/>
</g>
<g clip-path="url(#clip17_1_97)">
<path fill-rule="evenodd" clip-rule="evenodd" d="M1385 152.125C1385.07 152.125 1385.14 152.145 1385.2 152.181C1385.26 152.218 1385.31 152.271 1385.34 152.334L1386.28 154.241L1388.38 154.547C1388.45 154.558 1388.52 154.587 1388.57 154.632C1388.62 154.677 1388.66 154.736 1388.69 154.803C1388.71 154.869 1388.71 154.94 1388.69 155.008C1388.68 155.076 1388.64 155.138 1388.59 155.187L1387.07 156.672L1387.43 158.768C1387.44 158.837 1387.43 158.908 1387.4 158.973C1387.38 159.038 1387.33 159.094 1387.28 159.135C1387.22 159.176 1387.15 159.2 1387.08 159.206C1387.01 159.211 1386.94 159.196 1386.88 159.163L1385 158.174L1383.12 159.163C1383.06 159.196 1382.99 159.211 1382.92 159.206C1382.85 159.2 1382.78 159.176 1382.72 159.135C1382.67 159.094 1382.62 159.038 1382.6 158.973C1382.57 158.908 1382.56 158.837 1382.57 158.768L1382.93 156.672L1381.41 155.187C1381.36 155.138 1381.32 155.076 1381.31 155.008C1381.29 154.94 1381.29 154.869 1381.31 154.802C1381.34 154.736 1381.38 154.676 1381.43 154.631C1381.48 154.586 1381.55 154.557 1381.62 154.547L1383.72 154.241L1384.66 152.334C1384.69 152.271 1384.74 152.218 1384.8 152.181C1384.86 152.145 1384.93 152.125 1385 152.125V152.125Z" fill="#D3AC53"/>
</g>
<g clip-path="url(#clip18_1_97)">
<path fill-rule="evenodd" clip-rule="evenodd" d="M1348 621.125C1348.07 621.125 1348.14 621.145 1348.2 621.181C1348.26 621.218 1348.31 621.271 1348.34 621.334L1349.28 623.241L1351.38 623.547C1351.45 623.558 1351.52 623.587 1351.57 623.632C1351.62 623.677 1351.66 623.736 1351.69 623.803C1351.71 623.869 1351.71 623.94 1351.69 624.008C1351.68 624.076 1351.64 624.138 1351.59 624.187L1350.07 625.672L1350.43 627.768C1350.44 627.837 1350.43 627.908 1350.4 627.973C1350.38 628.038 1350.33 628.094 1350.28 628.135C1350.22 628.176 1350.15 628.2 1350.08 628.206C1350.01 628.211 1349.94 628.196 1349.88 628.163L1348 627.174L1346.12 628.163C1346.06 628.196 1345.99 628.211 1345.92 628.206C1345.85 628.2 1345.78 628.176 1345.72 628.135C1345.67 628.094 1345.62 628.038 1345.6 627.973C1345.57 627.908 1345.56 627.837 1345.57 627.768L1345.93 625.672L1344.41 624.187C1344.36 624.138 1344.32 624.076 1344.31 624.008C1344.29 623.94 1344.29 623.869 1344.31 623.802C1344.34 623.736 1344.38 623.676 1344.43 623.631C1344.48 623.586 1344.55 623.557 1344.62 623.547L1346.72 623.241L1347.66 621.334C1347.69 621.271 1347.74 621.218 1347.8 621.181C1347.86 621.145 1347.93 621.125 1348 621.125V621.125Z" fill="#D3AC53"/>
</g>
<g clip-path="url(#clip19_1_97)">
<path fill-rule="evenodd" clip-rule="evenodd" d="M1381 712.125C1381.07 712.125 1381.14 712.145 1381.2 712.181C1381.26 712.218 1381.31 712.271 1381.34 712.334L1382.28 714.241L1384.38 714.547C1384.45 714.558 1384.52 714.587 1384.57 714.632C1384.62 714.677 1384.66 714.736 1384.69 714.803C1384.71 714.869 1384.71 714.94 1384.69 715.008C1384.68 715.076 1384.64 715.138 1384.59 715.187L1383.07 716.672L1383.43 718.768C1383.44 718.837 1383.43 718.908 1383.4 718.973C1383.38 719.038 1383.33 719.094 1383.28 719.135C1383.22 719.176 1383.15 719.2 1383.08 719.206C1383.01 719.211 1382.94 719.196 1382.88 719.163L1381 718.174L1379.12 719.163C1379.06 719.196 1378.99 719.211 1378.92 719.206C1378.85 719.2 1378.78 719.176 1378.72 719.135C1378.67 719.094 1378.62 719.038 1378.6 718.973C1378.57 718.908 1378.56 718.837 1378.57 718.768L1378.93 716.672L1377.41 715.187C1377.36 715.138 1377.32 715.076 1377.31 715.008C1377.29 714.94 1377.29 714.869 1377.31 714.802C1377.34 714.736 1377.38 714.676 1377.43 714.631C1377.48 714.586 1377.55 714.557 1377.62 714.547L1379.72 714.241L1380.66 712.334C1380.69 712.271 1380.74 712.218 1380.8 712.181C1380.86 712.145 1380.93 712.125 1381 712.125V712.125Z" fill="#D3AC53"/>
</g>
<g clip-path="url(#clip20_1_97)">
<path fill-rule="evenodd" clip-rule="evenodd" d="M1233 553.125C1233.07 553.125 1233.14 553.145 1233.2 553.181C1233.26 553.218 1233.31 553.271 1233.34 553.334L1234.28 555.241L1236.38 555.547C1236.45 555.558 1236.52 555.587 1236.57 555.632C1236.62 555.677 1236.66 555.736 1236.69 555.803C1236.71 555.869 1236.71 555.94 1236.69 556.008C1236.68 556.076 1236.64 556.138 1236.59 556.187L1235.07 557.672L1235.43 559.768C1235.44 559.837 1235.43 559.908 1235.4 559.973C1235.38 560.038 1235.33 560.094 1235.28 560.135C1235.22 560.176 1235.15 560.2 1235.08 560.206C1235.01 560.211 1234.94 560.196 1234.88 560.163L1233 559.174L1231.12 560.163C1231.06 560.196 1230.99 560.211 1230.92 560.206C1230.85 560.2 1230.78 560.176 1230.72 560.135C1230.67 560.094 1230.62 560.038 1230.6 559.973C1230.57 559.908 1230.56 559.837 1230.57 559.768L1230.93 557.672L1229.41 556.187C1229.36 556.138 1229.32 556.076 1229.31 556.008C1229.29 555.94 1229.29 555.869 1229.31 555.802C1229.34 555.736 1229.38 555.676 1229.43 555.631C1229.48 555.586 1229.55 555.557 1229.62 555.547L1231.72 555.241L1232.66 553.334C1232.69 553.271 1232.74 553.218 1232.8 553.181C1232.86 553.145 1232.93 553.125 1233 553.125V553.125Z" fill="#D3AC53"/>
</g>
<g clip-path="url(#clip21_1_97)">
<path fill-rule="evenodd" clip-rule="evenodd" d="M1169 677.125C1169.07 677.125 1169.14 677.145 1169.2 677.181C1169.26 677.218 1169.31 677.271 1169.34 677.334L1170.28 679.241L1172.38 679.547C1172.45 679.558 1172.52 679.587 1172.57 679.632C1172.62 679.677 1172.66 679.736 1172.69 679.803C1172.71 679.869 1172.71 679.94 1172.69 680.008C1172.68 680.076 1172.64 680.138 1172.59 680.187L1171.07 681.672L1171.43 683.768C1171.44 683.837 1171.43 683.908 1171.4 683.973C1171.38 684.038 1171.33 684.094 1171.28 684.135C1171.22 684.176 1171.15 684.2 1171.08 684.206C1171.01 684.211 1170.94 684.196 1170.88 684.163L1169 683.174L1167.12 684.163C1167.06 684.196 1166.99 684.211 1166.92 684.206C1166.85 684.2 1166.78 684.176 1166.72 684.135C1166.67 684.094 1166.62 684.038 1166.6 683.973C1166.57 683.908 1166.56 683.837 1166.57 683.768L1166.93 681.672L1165.41 680.187C1165.36 680.138 1165.32 680.076 1165.31 680.008C1165.29 679.94 1165.29 679.869 1165.31 679.802C1165.34 679.736 1165.38 679.676 1165.43 679.631C1165.48 679.586 1165.55 679.557 1165.62 679.547L1167.72 679.241L1168.66 677.334C1168.69 677.271 1168.74 677.218 1168.8 677.181C1168.86 677.145 1168.93 677.125 1169 677.125V677.125Z" fill="#D3AC53"/>
</g>
<g clip-path="url(#clip22_1_97)">
<path fill-rule="evenodd" clip-rule="evenodd" d="M1082 56.125C1082.07 56.125 1082.14 56.1445 1082.2 56.1814C1082.26 56.2184 1082.31 56.2712 1082.34 56.334L1083.28 58.2415L1085.38 58.5475C1085.45 58.5576 1085.52 58.5868 1085.57 58.6319C1085.62 58.6769 1085.66 58.7361 1085.69 58.8026C1085.71 58.8691 1085.71 58.9404 1085.69 59.0083C1085.68 59.0763 1085.64 59.1381 1085.59 59.187L1084.07 60.672L1084.43 62.768C1084.44 62.837 1084.43 62.9079 1084.4 62.9727C1084.38 63.0375 1084.33 63.0937 1084.28 63.1348C1084.22 63.176 1084.15 63.2005 1084.08 63.2055C1084.01 63.2106 1083.94 63.196 1083.88 63.1635L1082 62.1735L1080.12 63.1635C1080.06 63.196 1079.99 63.2106 1079.92 63.2055C1079.85 63.2005 1079.78 63.176 1079.72 63.1349C1079.67 63.0938 1079.62 63.0378 1079.6 62.973C1079.57 62.9083 1079.56 62.8374 1079.57 62.7685L1079.93 60.6715L1078.41 59.187C1078.36 59.1382 1078.32 59.0762 1078.31 59.0082C1078.29 58.9402 1078.29 58.8689 1078.31 58.8023C1078.34 58.7356 1078.38 58.6764 1078.43 58.6313C1078.48 58.5862 1078.55 58.557 1078.62 58.547L1080.72 58.2415L1081.66 56.334C1081.69 56.2712 1081.74 56.2184 1081.8 56.1814C1081.86 56.1445 1081.93 56.125 1082 56.125V56.125Z" fill="#D3AC53"/>
</g>
<g clip-path="url(#clip23_1_97)">
<path fill-rule="evenodd" clip-rule="evenodd" d="M1305 5.125C1305.07 5.12495 1305.14 5.14451 1305.2 5.18144C1305.26 5.21838 1305.31 5.27123 1305.34 5.334L1306.28 7.2415L1308.38 7.5475C1308.45 7.55755 1308.52 7.58678 1308.57 7.63186C1308.62 7.67694 1308.66 7.73609 1308.69 7.80262C1308.71 7.86914 1308.71 7.9404 1308.69 8.00833C1308.68 8.07625 1308.64 8.13814 1308.59 8.187L1307.07 9.672L1307.43 11.768C1307.44 11.837 1307.43 11.9079 1307.4 11.9727C1307.38 12.0375 1307.33 12.0937 1307.28 12.1348C1307.22 12.176 1307.15 12.2005 1307.08 12.2055C1307.01 12.2106 1306.94 12.196 1306.88 12.1635L1305 11.1735L1303.12 12.1635C1303.06 12.196 1302.99 12.2106 1302.92 12.2055C1302.85 12.2005 1302.78 12.176 1302.72 12.1349C1302.67 12.0938 1302.62 12.0378 1302.6 11.973C1302.57 11.9083 1302.56 11.8374 1302.57 11.7685L1302.93 9.6715L1301.41 8.187C1301.36 8.13816 1301.32 8.07623 1301.31 8.00823C1301.29 7.94024 1301.29 7.86888 1301.31 7.80226C1301.34 7.73564 1301.38 7.67642 1301.43 7.63131C1301.48 7.58619 1301.55 7.55698 1301.62 7.547L1303.72 7.2415L1304.66 5.334C1304.69 5.27123 1304.74 5.21838 1304.8 5.18144C1304.86 5.14451 1304.93 5.12495 1305 5.125V5.125Z" fill="#D3AC53"/>
</g>
<g clip-path="url(#clip24_1_97)">
<path fill-rule="evenodd" clip-rule="evenodd" d="M1323 287.125C1323.07 287.125 1323.14 287.145 1323.2 287.181C1323.26 287.218 1323.31 287.271 1323.34 287.334L1324.28 289.241L1326.38 289.547C1326.45 289.558 1326.52 289.587 1326.57 289.632C1326.62 289.677 1326.66 289.736 1326.69 289.803C1326.71 289.869 1326.71 289.94 1326.69 290.008C1326.68 290.076 1326.64 290.138 1326.59 290.187L1325.07 291.672L1325.43 293.768C1325.44 293.837 1325.43 293.908 1325.4 293.973C1325.38 294.038 1325.33 294.094 1325.28 294.135C1325.22 294.176 1325.15 294.2 1325.08 294.206C1325.01 294.211 1324.94 294.196 1324.88 294.163L1323 293.174L1321.12 294.163C1321.06 294.196 1320.99 294.211 1320.92 294.206C1320.85 294.2 1320.78 294.176 1320.72 294.135C1320.67 294.094 1320.62 294.038 1320.6 293.973C1320.57 293.908 1320.56 293.837 1320.57 293.768L1320.93 291.672L1319.41 290.187C1319.36 290.138 1319.32 290.076 1319.31 290.008C1319.29 289.94 1319.29 289.869 1319.31 289.802C1319.34 289.736 1319.38 289.676 1319.43 289.631C1319.48 289.586 1319.55 289.557 1319.62 289.547L1321.72 289.241L1322.66 287.334C1322.69 287.271 1322.74 287.218 1322.8 287.181C1322.86 287.145 1322.93 287.125 1323 287.125V287.125Z" fill="#D3AC53"/>
</g>
<g clip-path="url(#clip25_1_97)">
<path fill-rule="evenodd" clip-rule="evenodd" d="M1367 35.125C1367.07 35.125 1367.14 35.1445 1367.2 35.1814C1367.26 35.2184 1367.31 35.2712 1367.34 35.334L1368.28 37.2415L1370.38 37.5475C1370.45 37.5576 1370.52 37.5868 1370.57 37.6319C1370.62 37.6769 1370.66 37.7361 1370.69 37.8026C1370.71 37.8691 1370.71 37.9404 1370.69 38.0083C1370.68 38.0763 1370.64 38.1381 1370.59 38.187L1369.07 39.672L1369.43 41.768C1369.44 41.837 1369.43 41.9079 1369.4 41.9727C1369.38 42.0375 1369.33 42.0937 1369.28 42.1348C1369.22 42.176 1369.15 42.2005 1369.08 42.2055C1369.01 42.2106 1368.94 42.196 1368.88 42.1635L1367 41.1735L1365.12 42.1635C1365.06 42.196 1364.99 42.2106 1364.92 42.2055C1364.85 42.2005 1364.78 42.176 1364.72 42.1349C1364.67 42.0938 1364.62 42.0378 1364.6 41.973C1364.57 41.9083 1364.56 41.8374 1364.57 41.7685L1364.93 39.6715L1363.41 38.187C1363.36 38.1382 1363.32 38.0762 1363.31 38.0082C1363.29 37.9402 1363.29 37.8689 1363.31 37.8023C1363.34 37.7356 1363.38 37.6764 1363.43 37.6313C1363.48 37.5862 1363.55 37.557 1363.62 37.547L1365.72 37.2415L1366.66 35.334C1366.69 35.2712 1366.74 35.2184 1366.8 35.1814C1366.86 35.1445 1366.93 35.125 1367 35.125V35.125Z" fill="#D3AC53"/>
</g>
<path fill-rule="evenodd" clip-rule="evenodd" d="M267 38.25C267.14 38.2499 267.277 38.289 267.396 38.3629C267.515 38.4368 267.611 38.5425 267.673 38.668L269.555 42.483L273.765 43.095C273.903 43.1151 274.034 43.1736 274.141 43.2637C274.248 43.3539 274.327 43.4722 274.37 43.6052C274.414 43.7383 274.419 43.8808 274.385 44.0167C274.352 44.1525 274.281 44.2763 274.181 44.374L271.135 47.344L271.854 51.536C271.878 51.6739 271.862 51.8157 271.81 51.9454C271.757 52.0751 271.669 52.1874 271.556 52.2697C271.443 52.352 271.309 52.401 271.169 52.4111C271.03 52.4212 270.89 52.3921 270.766 52.327L267 50.347L263.234 52.327C263.11 52.392 262.971 52.4211 262.831 52.411C262.692 52.4009 262.558 52.352 262.445 52.2699C262.332 52.1877 262.244 52.0755 262.191 51.946C262.138 51.8165 262.123 51.6749 262.146 51.537L262.866 47.343L259.818 44.374C259.718 44.2763 259.646 44.1525 259.613 44.0165C259.579 43.8805 259.584 43.7378 259.628 43.6045C259.671 43.4713 259.751 43.3528 259.858 43.2626C259.965 43.1724 260.095 43.114 260.234 43.094L264.444 42.483L266.327 38.668C266.389 38.5425 266.485 38.4368 266.604 38.3629C266.723 38.289 266.86 38.2499 267 38.25V38.25Z" fill="#D3AC53"/>
<path fill-rule="evenodd" clip-rule="evenodd" d="M182 0.25C182.14 0.24991 182.277 0.289014 182.396 0.362887C182.515 0.43676 182.611 0.542452 182.673 0.668L184.555 4.483L188.765 5.095C188.903 5.11511 189.034 5.17355 189.141 5.26372C189.248 5.35388 189.327 5.47218 189.37 5.60523C189.414 5.73829 189.419 5.8808 189.385 6.01665C189.352 6.1525 189.281 6.27628 189.181 6.374L186.135 9.344L186.854 13.536C186.878 13.6739 186.862 13.8157 186.81 13.9454C186.757 14.0751 186.669 14.1874 186.556 14.2697C186.443 14.352 186.309 14.401 186.169 14.4111C186.03 14.4212 185.89 14.3921 185.766 14.327L182 12.347L178.234 14.327C178.11 14.392 177.971 14.4211 177.831 14.411C177.692 14.4009 177.558 14.352 177.445 14.2699C177.332 14.1877 177.244 14.0755 177.191 13.946C177.138 13.8165 177.123 13.6749 177.146 13.537L177.866 9.343L174.818 6.374C174.718 6.27632 174.646 6.15247 174.613 6.01647C174.579 5.88047 174.584 5.73777 174.628 5.60453C174.671 5.47129 174.751 5.35284 174.858 5.26261C174.965 5.17238 175.095 5.11397 175.234 5.094L179.444 4.483L181.327 0.668C181.389 0.542452 181.485 0.43676 181.604 0.362887C181.723 0.289014 181.86 0.24991 182 0.25V0.25Z" fill="#D3AC53"/>
<path fill-rule="evenodd" clip-rule="evenodd" d="M412 213.25C412.14 213.25 412.277 213.289 412.396 213.363C412.515 213.437 412.611 213.542 412.673 213.668L414.555 217.483L418.765 218.095C418.903 218.115 419.034 218.174 419.141 218.264C419.248 218.354 419.327 218.472 419.37 218.605C419.414 218.738 419.419 218.881 419.385 219.017C419.352 219.153 419.281 219.276 419.181 219.374L416.135 222.344L416.854 226.536C416.878 226.674 416.862 226.816 416.81 226.945C416.757 227.075 416.669 227.187 416.556 227.27C416.443 227.352 416.309 227.401 416.169 227.411C416.03 227.421 415.89 227.392 415.766 227.327L412 225.347L408.234 227.327C408.11 227.392 407.971 227.421 407.831 227.411C407.692 227.401 407.558 227.352 407.445 227.27C407.332 227.188 407.244 227.076 407.191 226.946C407.138 226.817 407.123 226.675 407.146 226.537L407.866 222.343L404.818 219.374C404.718 219.276 404.646 219.152 404.613 219.016C404.579 218.88 404.584 218.738 404.628 218.605C404.671 218.471 404.751 218.353 404.858 218.263C404.965 218.172 405.095 218.114 405.234 218.094L409.444 217.483L411.327 213.668C411.389 213.542 411.485 213.437 411.604 213.363C411.723 213.289 411.86 213.25 412 213.25V213.25Z" fill="#D3AC53"/>
<path fill-rule="evenodd" clip-rule="evenodd" d="M954 97.25C954.14 97.2499 954.277 97.289 954.396 97.3629C954.515 97.4368 954.611 97.5425 954.673 97.668L956.555 101.483L960.765 102.095C960.903 102.115 961.034 102.174 961.141 102.264C961.247 102.354 961.327 102.472 961.37 102.605C961.414 102.738 961.419 102.881 961.385 103.017C961.352 103.153 961.281 103.276 961.181 103.374L958.135 106.344L958.854 110.536C958.878 110.674 958.862 110.816 958.81 110.945C958.757 111.075 958.669 111.187 958.556 111.27C958.443 111.352 958.309 111.401 958.169 111.411C958.03 111.421 957.89 111.392 957.766 111.327L954 109.347L950.234 111.327C950.11 111.392 949.971 111.421 949.831 111.411C949.692 111.401 949.558 111.352 949.445 111.27C949.332 111.188 949.244 111.076 949.191 110.946C949.138 110.817 949.122 110.675 949.146 110.537L949.866 106.343L946.818 103.374C946.718 103.276 946.646 103.152 946.613 103.016C946.579 102.88 946.584 102.738 946.628 102.605C946.671 102.471 946.751 102.353 946.858 102.263C946.965 102.172 947.095 102.114 947.234 102.094L951.444 101.483L953.327 97.668C953.389 97.5425 953.485 97.4368 953.604 97.3629C953.723 97.289 953.86 97.2499 954 97.25V97.25Z" fill="#D3AC53"/>
<path fill-rule="evenodd" clip-rule="evenodd" d="M1112 221.25C1112.14 221.25 1112.28 221.289 1112.4 221.363C1112.52 221.437 1112.61 221.542 1112.67 221.668L1114.55 225.483L1118.76 226.095C1118.9 226.115 1119.03 226.174 1119.14 226.264C1119.25 226.354 1119.33 226.472 1119.37 226.605C1119.41 226.738 1119.42 226.881 1119.39 227.017C1119.35 227.153 1119.28 227.276 1119.18 227.374L1116.13 230.344L1116.85 234.536C1116.88 234.674 1116.86 234.816 1116.81 234.945C1116.76 235.075 1116.67 235.187 1116.56 235.27C1116.44 235.352 1116.31 235.401 1116.17 235.411C1116.03 235.421 1115.89 235.392 1115.77 235.327L1112 233.347L1108.23 235.327C1108.11 235.392 1107.97 235.421 1107.83 235.411C1107.69 235.401 1107.56 235.352 1107.44 235.27C1107.33 235.188 1107.24 235.076 1107.19 234.946C1107.14 234.817 1107.12 234.675 1107.15 234.537L1107.87 230.343L1104.82 227.374C1104.72 227.276 1104.65 227.152 1104.61 227.016C1104.58 226.88 1104.58 226.738 1104.63 226.605C1104.67 226.471 1104.75 226.353 1104.86 226.263C1104.97 226.172 1105.1 226.114 1105.23 226.094L1109.44 225.483L1111.33 221.668C1111.39 221.542 1111.48 221.437 1111.6 221.363C1111.72 221.289 1111.86 221.25 1112 221.25V221.25Z" fill="#D3AC53"/>
<path fill-rule="evenodd" clip-rule="evenodd" d="M607 43.25C607.14 43.2499 607.277 43.289 607.396 43.3629C607.515 43.4368 607.611 43.5425 607.673 43.668L609.555 47.483L613.765 48.095C613.903 48.1151 614.034 48.1736 614.141 48.2637C614.248 48.3539 614.327 48.4722 614.37 48.6052C614.414 48.7383 614.419 48.8808 614.385 49.0167C614.352 49.1525 614.281 49.2763 614.181 49.374L611.135 52.344L611.854 56.536C611.878 56.6739 611.862 56.8157 611.81 56.9454C611.757 57.0751 611.669 57.1874 611.556 57.2697C611.443 57.352 611.309 57.401 611.169 57.4111C611.03 57.4212 610.89 57.3921 610.766 57.327L607 55.347L603.234 57.327C603.11 57.392 602.971 57.4211 602.831 57.411C602.692 57.4009 602.558 57.352 602.445 57.2699C602.332 57.1877 602.244 57.0755 602.191 56.946C602.138 56.8165 602.123 56.6749 602.146 56.537L602.866 52.343L599.818 49.374C599.718 49.2763 599.646 49.1525 599.613 49.0165C599.579 48.8805 599.584 48.7378 599.628 48.6045C599.671 48.4713 599.751 48.3528 599.858 48.2626C599.965 48.1724 600.095 48.114 600.234 48.094L604.444 47.483L606.327 43.668C606.389 43.5425 606.485 43.4368 606.604 43.3629C606.723 43.289 606.86 43.2499 607 43.25V43.25Z" fill="#D3AC53"/>
<path fill-rule="evenodd" clip-rule="evenodd" d="M1301 720.25C1301.14 720.25 1301.28 720.289 1301.4 720.363C1301.52 720.437 1301.61 720.542 1301.67 720.668L1303.55 724.483L1307.76 725.095C1307.9 725.115 1308.03 725.174 1308.14 725.264C1308.25 725.354 1308.33 725.472 1308.37 725.605C1308.41 725.738 1308.42 725.881 1308.39 726.017C1308.35 726.153 1308.28 726.276 1308.18 726.374L1305.13 729.344L1305.85 733.536C1305.88 733.674 1305.86 733.816 1305.81 733.945C1305.76 734.075 1305.67 734.187 1305.56 734.27C1305.44 734.352 1305.31 734.401 1305.17 734.411C1305.03 734.421 1304.89 734.392 1304.77 734.327L1301 732.347L1297.23 734.327C1297.11 734.392 1296.97 734.421 1296.83 734.411C1296.69 734.401 1296.56 734.352 1296.44 734.27C1296.33 734.188 1296.24 734.076 1296.19 733.946C1296.14 733.817 1296.12 733.675 1296.15 733.537L1296.87 729.343L1293.82 726.374C1293.72 726.276 1293.65 726.152 1293.61 726.016C1293.58 725.88 1293.58 725.738 1293.63 725.605C1293.67 725.471 1293.75 725.353 1293.86 725.263C1293.97 725.172 1294.1 725.114 1294.23 725.094L1298.44 724.483L1300.33 720.668C1300.39 720.542 1300.48 720.437 1300.6 720.363C1300.72 720.289 1300.86 720.25 1301 720.25V720.25Z" fill="#D3AC53"/>
<path fill-rule="evenodd" clip-rule="evenodd" d="M282 357.25C282.14 357.25 282.277 357.289 282.396 357.363C282.515 357.437 282.611 357.542 282.673 357.668L284.555 361.483L288.765 362.095C288.903 362.115 289.034 362.174 289.141 362.264C289.248 362.354 289.327 362.472 289.37 362.605C289.414 362.738 289.419 362.881 289.385 363.017C289.352 363.153 289.281 363.276 289.181 363.374L286.135 366.344L286.854 370.536C286.878 370.674 286.862 370.816 286.81 370.945C286.757 371.075 286.669 371.187 286.556 371.27C286.443 371.352 286.309 371.401 286.169 371.411C286.03 371.421 285.89 371.392 285.766 371.327L282 369.347L278.234 371.327C278.11 371.392 277.971 371.421 277.831 371.411C277.692 371.401 277.558 371.352 277.445 371.27C277.332 371.188 277.244 371.076 277.191 370.946C277.138 370.817 277.123 370.675 277.146 370.537L277.866 366.343L274.818 363.374C274.718 363.276 274.646 363.152 274.613 363.016C274.579 362.88 274.584 362.738 274.628 362.605C274.671 362.471 274.751 362.353 274.858 362.263C274.965 362.172 275.095 362.114 275.234 362.094L279.444 361.483L281.327 357.668C281.389 357.542 281.485 357.437 281.604 357.363C281.723 357.289 281.86 357.25 282 357.25V357.25Z" fill="#D3AC53"/>
<path fill-rule="evenodd" clip-rule="evenodd" d="M1220 157.25C1220.14 157.25 1220.28 157.289 1220.4 157.363C1220.52 157.437 1220.61 157.542 1220.67 157.668L1222.55 161.483L1226.76 162.095C1226.9 162.115 1227.03 162.174 1227.14 162.264C1227.25 162.354 1227.33 162.472 1227.37 162.605C1227.41 162.738 1227.42 162.881 1227.39 163.017C1227.35 163.153 1227.28 163.276 1227.18 163.374L1224.13 166.344L1224.85 170.536C1224.88 170.674 1224.86 170.816 1224.81 170.945C1224.76 171.075 1224.67 171.187 1224.56 171.27C1224.44 171.352 1224.31 171.401 1224.17 171.411C1224.03 171.421 1223.89 171.392 1223.77 171.327L1220 169.347L1216.23 171.327C1216.11 171.392 1215.97 171.421 1215.83 171.411C1215.69 171.401 1215.56 171.352 1215.44 171.27C1215.33 171.188 1215.24 171.076 1215.19 170.946C1215.14 170.817 1215.12 170.675 1215.15 170.537L1215.87 166.343L1212.82 163.374C1212.72 163.276 1212.65 163.152 1212.61 163.016C1212.58 162.88 1212.58 162.738 1212.63 162.605C1212.67 162.471 1212.75 162.353 1212.86 162.263C1212.97 162.172 1213.1 162.114 1213.23 162.094L1217.44 161.483L1219.33 157.668C1219.39 157.542 1219.48 157.437 1219.6 157.363C1219.72 157.289 1219.86 157.25 1220 157.25V157.25Z" fill="#D3AC53"/>
<path fill-rule="evenodd" clip-rule="evenodd" d="M1205 52.25C1205.14 52.2499 1205.28 52.289 1205.4 52.3629C1205.52 52.4368 1205.61 52.5425 1205.67 52.668L1207.55 56.483L1211.76 57.095C1211.9 57.1151 1212.03 57.1736 1212.14 57.2637C1212.25 57.3539 1212.33 57.4722 1212.37 57.6052C1212.41 57.7383 1212.42 57.8808 1212.39 58.0167C1212.35 58.1525 1212.28 58.2763 1212.18 58.374L1209.13 61.344L1209.85 65.536C1209.88 65.6739 1209.86 65.8157 1209.81 65.9454C1209.76 66.0751 1209.67 66.1874 1209.56 66.2697C1209.44 66.352 1209.31 66.401 1209.17 66.4111C1209.03 66.4212 1208.89 66.3921 1208.77 66.327L1205 64.347L1201.23 66.327C1201.11 66.392 1200.97 66.4211 1200.83 66.411C1200.69 66.4009 1200.56 66.352 1200.44 66.2699C1200.33 66.1877 1200.24 66.0755 1200.19 65.946C1200.14 65.8165 1200.12 65.6749 1200.15 65.537L1200.87 61.343L1197.82 58.374C1197.72 58.2763 1197.65 58.1525 1197.61 58.0165C1197.58 57.8805 1197.58 57.7378 1197.63 57.6045C1197.67 57.4713 1197.75 57.3528 1197.86 57.2626C1197.97 57.1724 1198.1 57.114 1198.23 57.094L1202.44 56.483L1204.33 52.668C1204.39 52.5425 1204.48 52.4368 1204.6 52.3629C1204.72 52.289 1204.86 52.2499 1205 52.25V52.25Z" fill="#D3AC53"/>
<path fill-rule="evenodd" clip-rule="evenodd" d="M1327 212.25C1327.14 212.25 1327.28 212.289 1327.4 212.363C1327.52 212.437 1327.61 212.542 1327.67 212.668L1329.55 216.483L1333.76 217.095C1333.9 217.115 1334.03 217.174 1334.14 217.264C1334.25 217.354 1334.33 217.472 1334.37 217.605C1334.41 217.738 1334.42 217.881 1334.39 218.017C1334.35 218.153 1334.28 218.276 1334.18 218.374L1331.13 221.344L1331.85 225.536C1331.88 225.674 1331.86 225.816 1331.81 225.945C1331.76 226.075 1331.67 226.187 1331.56 226.27C1331.44 226.352 1331.31 226.401 1331.17 226.411C1331.03 226.421 1330.89 226.392 1330.77 226.327L1327 224.347L1323.23 226.327C1323.11 226.392 1322.97 226.421 1322.83 226.411C1322.69 226.401 1322.56 226.352 1322.44 226.27C1322.33 226.188 1322.24 226.076 1322.19 225.946C1322.14 225.817 1322.12 225.675 1322.15 225.537L1322.87 221.343L1319.82 218.374C1319.72 218.276 1319.65 218.152 1319.61 218.016C1319.58 217.88 1319.58 217.738 1319.63 217.605C1319.67 217.471 1319.75 217.353 1319.86 217.263C1319.97 217.172 1320.1 217.114 1320.23 217.094L1324.44 216.483L1326.33 212.668C1326.39 212.542 1326.48 212.437 1326.6 212.363C1326.72 212.289 1326.86 212.25 1327 212.25V212.25Z" fill="#D3AC53"/>
<path fill-rule="evenodd" clip-rule="evenodd" d="M238 589.25C238.14 589.25 238.277 589.289 238.396 589.363C238.515 589.437 238.611 589.542 238.673 589.668L240.555 593.483L244.765 594.095C244.903 594.115 245.034 594.174 245.141 594.264C245.248 594.354 245.327 594.472 245.37 594.605C245.414 594.738 245.419 594.881 245.385 595.017C245.352 595.153 245.281 595.276 245.181 595.374L242.135 598.344L242.854 602.536C242.878 602.674 242.862 602.816 242.81 602.945C242.757 603.075 242.669 603.187 242.556 603.27C242.443 603.352 242.309 603.401 242.169 603.411C242.03 603.421 241.89 603.392 241.766 603.327L238 601.347L234.234 603.327C234.11 603.392 233.971 603.421 233.831 603.411C233.692 603.401 233.558 603.352 233.445 603.27C233.332 603.188 233.244 603.076 233.191 602.946C233.138 602.817 233.123 602.675 233.146 602.537L233.866 598.343L230.818 595.374C230.718 595.276 230.646 595.152 230.613 595.016C230.579 594.88 230.584 594.738 230.628 594.605C230.671 594.471 230.751 594.353 230.858 594.263C230.965 594.172 231.095 594.114 231.234 594.094L235.444 593.483L237.327 589.668C237.389 589.542 237.485 589.437 237.604 589.363C237.723 589.289 237.86 589.25 238 589.25V589.25Z" fill="#D3AC53"/>
<path fill-rule="evenodd" clip-rule="evenodd" d="M76 434.25C76.14 434.25 76.2773 434.289 76.3962 434.363C76.5151 434.437 76.611 434.542 76.673 434.668L78.555 438.483L82.765 439.095C82.9035 439.115 83.0336 439.174 83.1405 439.264C83.2475 439.354 83.3272 439.472 83.3704 439.605C83.4137 439.738 83.4189 439.881 83.3854 440.017C83.352 440.153 83.2812 440.276 83.181 440.374L80.135 443.344L80.854 447.536C80.8777 447.674 80.8624 447.816 80.8097 447.945C80.757 448.075 80.6691 448.187 80.5559 448.27C80.4427 448.352 80.3087 448.401 80.1691 448.411C80.0295 448.421 79.8899 448.392 79.766 448.327L76 446.347L72.234 448.327C72.1102 448.392 71.9707 448.421 71.8312 448.411C71.6917 448.401 71.5579 448.352 71.4447 448.27C71.3315 448.188 71.2436 448.076 71.1908 447.946C71.138 447.817 71.1225 447.675 71.146 447.537L71.866 443.343L68.818 440.374C68.7176 440.276 68.6465 440.152 68.6129 440.016C68.5792 439.88 68.5843 439.738 68.6276 439.605C68.6709 439.471 68.7507 439.353 68.8579 439.263C68.965 439.172 69.0953 439.114 69.234 439.094L73.444 438.483L75.327 434.668C75.389 434.542 75.4849 434.437 75.6038 434.363C75.7228 434.289 75.86 434.25 76 434.25V434.25Z" fill="#D3AC53"/>
<path fill-rule="evenodd" clip-rule="evenodd" d="M1245 418.25C1245.14 418.25 1245.28 418.289 1245.4 418.363C1245.52 418.437 1245.61 418.542 1245.67 418.668L1247.55 422.483L1251.76 423.095C1251.9 423.115 1252.03 423.174 1252.14 423.264C1252.25 423.354 1252.33 423.472 1252.37 423.605C1252.41 423.738 1252.42 423.881 1252.39 424.017C1252.35 424.153 1252.28 424.276 1252.18 424.374L1249.13 427.344L1249.85 431.536C1249.88 431.674 1249.86 431.816 1249.81 431.945C1249.76 432.075 1249.67 432.187 1249.56 432.27C1249.44 432.352 1249.31 432.401 1249.17 432.411C1249.03 432.421 1248.89 432.392 1248.77 432.327L1245 430.347L1241.23 432.327C1241.11 432.392 1240.97 432.421 1240.83 432.411C1240.69 432.401 1240.56 432.352 1240.44 432.27C1240.33 432.188 1240.24 432.076 1240.19 431.946C1240.14 431.817 1240.12 431.675 1240.15 431.537L1240.87 427.343L1237.82 424.374C1237.72 424.276 1237.65 424.152 1237.61 424.016C1237.58 423.88 1237.58 423.738 1237.63 423.605C1237.67 423.471 1237.75 423.353 1237.86 423.263C1237.97 423.172 1238.1 423.114 1238.23 423.094L1242.44 422.483L1244.33 418.668C1244.39 418.542 1244.48 418.437 1244.6 418.363C1244.72 418.289 1244.86 418.25 1245 418.25V418.25Z" fill="#D3AC53"/>
<path fill-rule="evenodd" clip-rule="evenodd" d="M1374 504.25C1374.14 504.25 1374.28 504.289 1374.4 504.363C1374.52 504.437 1374.61 504.542 1374.67 504.668L1376.55 508.483L1380.76 509.095C1380.9 509.115 1381.03 509.174 1381.14 509.264C1381.25 509.354 1381.33 509.472 1381.37 509.605C1381.41 509.738 1381.42 509.881 1381.39 510.017C1381.35 510.153 1381.28 510.276 1381.18 510.374L1378.13 513.344L1378.85 517.536C1378.88 517.674 1378.86 517.816 1378.81 517.945C1378.76 518.075 1378.67 518.187 1378.56 518.27C1378.44 518.352 1378.31 518.401 1378.17 518.411C1378.03 518.421 1377.89 518.392 1377.77 518.327L1374 516.347L1370.23 518.327C1370.11 518.392 1369.97 518.421 1369.83 518.411C1369.69 518.401 1369.56 518.352 1369.44 518.27C1369.33 518.188 1369.24 518.076 1369.19 517.946C1369.14 517.817 1369.12 517.675 1369.15 517.537L1369.87 513.343L1366.82 510.374C1366.72 510.276 1366.65 510.152 1366.61 510.016C1366.58 509.88 1366.58 509.738 1366.63 509.605C1366.67 509.471 1366.75 509.353 1366.86 509.263C1366.97 509.172 1367.1 509.114 1367.23 509.094L1371.44 508.483L1373.33 504.668C1373.39 504.542 1373.48 504.437 1373.6 504.363C1373.72 504.289 1373.86 504.25 1374 504.25V504.25Z" fill="#D3AC53"/>
<path fill-rule="evenodd" clip-rule="evenodd" d="M212 218.25C212.14 218.25 212.277 218.289 212.396 218.363C212.515 218.437 212.611 218.542 212.673 218.668L214.555 222.483L218.765 223.095C218.903 223.115 219.034 223.174 219.141 223.264C219.248 223.354 219.327 223.472 219.37 223.605C219.414 223.738 219.419 223.881 219.385 224.017C219.352 224.153 219.281 224.276 219.181 224.374L216.135 227.344L216.854 231.536C216.878 231.674 216.862 231.816 216.81 231.945C216.757 232.075 216.669 232.187 216.556 232.27C216.443 232.352 216.309 232.401 216.169 232.411C216.03 232.421 215.89 232.392 215.766 232.327L212 230.347L208.234 232.327C208.11 232.392 207.971 232.421 207.831 232.411C207.692 232.401 207.558 232.352 207.445 232.27C207.332 232.188 207.244 232.076 207.191 231.946C207.138 231.817 207.123 231.675 207.146 231.537L207.866 227.343L204.818 224.374C204.718 224.276 204.646 224.152 204.613 224.016C204.579 223.88 204.584 223.738 204.628 223.605C204.671 223.471 204.751 223.353 204.858 223.263C204.965 223.172 205.095 223.114 205.234 223.094L209.444 222.483L211.327 218.668C211.389 218.542 211.485 218.437 211.604 218.363C211.723 218.289 211.86 218.25 212 218.25V218.25Z" fill="#D3AC53"/>
<defs>
<clipPath id="clip0_1_97">
<rect width="8" height="8" fill="white" transform="translate(336 107)"/>
</clipPath>
<clipPath id="clip1_1_97">
<rect width="8" height="8" fill="white" transform="translate(961 9)"/>
</clipPath>
<clipPath id="clip2_1_97">
<rect width="8" height="8" fill="white" transform="translate(1150 149)"/>
</clipPath>
<clipPath id="clip3_1_97">
<rect width="8" height="8" fill="white" transform="translate(115 283)"/>
</clipPath>
<clipPath id="clip4_1_97">
<rect width="8" height="8" fill="white" transform="translate(32 184)"/>
</clipPath>
<clipPath id="clip5_1_97">
<rect width="8" height="8" fill="white" transform="translate(799 8)"/>
</clipPath>
<clipPath id="clip6_1_97">
<rect width="8" height="8" fill="white" transform="translate(171 511)"/>
</clipPath>
<clipPath id="clip7_1_97">
<rect width="8" height="8" fill="white" transform="translate(8 545)"/>
</clipPath>
<clipPath id="clip8_1_97">
<rect width="8" height="8" fill="white" transform="translate(0 316)"/>
</clipPath>
<clipPath id="clip9_1_97">
<rect width="8" height="8" fill="white" transform="translate(182 395)"/>
</clipPath>
<clipPath id="clip10_1_97">
<rect width="8" height="8" fill="white" transform="translate(486 35)"/>
</clipPath>
<clipPath id="clip11_1_97">
<rect width="8" height="8" fill="white" transform="translate(335 295)"/>
</clipPath>
<clipPath id="clip12_1_97">
<rect width="8" height="8" fill="white" transform="translate(75 651)"/>
</clipPath>
<clipPath id="clip13_1_97">
<rect width="8" height="8" fill="white" transform="translate(817 89)"/>
</clipPath>
<clipPath id="clip14_1_97">
<rect width="8" height="8" fill="white" transform="translate(1142 442)"/>
</clipPath>
<clipPath id="clip15_1_97">
<rect width="8" height="8" fill="white" transform="translate(1222 283)"/>
</clipPath>
<clipPath id="clip16_1_97">
<rect width="8" height="8" fill="white" transform="translate(1377 395)"/>
</clipPath>
<clipPath id="clip17_1_97">
<rect width="8" height="8" fill="white" transform="translate(1381 152)"/>
</clipPath>
<clipPath id="clip18_1_97">
<rect width="8" height="8" fill="white" transform="translate(1344 621)"/>
</clipPath>
<clipPath id="clip19_1_97">
<rect width="8" height="8" fill="white" transform="translate(1377 712)"/>
</clipPath>
<clipPath id="clip20_1_97">
<rect width="8" height="8" fill="white" transform="translate(1229 553)"/>
</clipPath>
<clipPath id="clip21_1_97">
<rect width="8" height="8" fill="white" transform="translate(1165 677)"/>
</clipPath>
<clipPath id="clip22_1_97">
<rect width="8" height="8" fill="white" transform="translate(1078 56)"/>
</clipPath>
<clipPath id="clip23_1_97">
<rect width="8" height="8" fill="white" transform="translate(1301 5)"/>
</clipPath>
<clipPath id="clip24_1_97">
<rect width="8" height="8" fill="white" transform="translate(1319 287)"/>
</clipPath>
<clipPath id="clip25_1_97">
<rect width="8" height="8" fill="white" transform="translate(1363 35)"/>
</clipPath>
</defs>
</svg>
