<svg width="500" height="479" viewBox="0 0 500 479" fill="none" xmlns="http://www.w3.org/2000/svg">
<path fill-rule="evenodd" clip-rule="evenodd" d="M245.03 32C249.134 32 253.154 33.1391 256.634 35.2986C260.119 37.4582 262.926 40.5491 264.74 44.2156L319.867 155.734L443.193 173.622C447.249 174.209 451.061 175.918 454.19 178.552C457.324 181.186 459.655 184.645 460.922 188.537C462.189 192.429 462.344 196.593 461.362 200.562C460.381 204.531 458.305 208.15 455.373 211.01L366.144 297.824L387.204 420.36C387.9 424.395 387.448 428.536 385.907 432.327C384.361 436.118 381.786 439.399 378.473 441.807C375.154 444.21 371.235 445.646 367.143 445.942C363.057 446.239 358.965 445.385 355.337 443.48L245.018 385.606L134.699 443.48C131.071 445.379 126.985 446.233 122.9 445.937C118.814 445.64 114.894 444.21 111.576 441.807C108.263 439.405 105.688 436.124 104.141 432.339C102.595 428.553 102.143 424.412 102.827 420.384L123.917 297.789L34.6514 211.01C31.7074 208.156 29.6258 204.537 28.6445 200.556C27.6572 196.581 27.8059 192.411 29.0787 188.513C30.3455 184.621 32.6828 181.156 35.8231 178.516C38.9633 175.876 42.7816 174.173 46.8437 173.586L170.17 155.728L225.32 44.2215C227.134 40.5491 229.947 37.4641 233.427 35.3046C236.912 33.145 240.932 32 245.03 32.0059V32Z" fill="#E2BC44" stroke="#FFDA25" stroke-width="8" stroke-miterlimit="10"/>
<path d="M336 266.11C335.673 268.931 335.387 271.752 335.008 274.563C333.346 286.972 329.117 298.469 322.489 309.051C315.086 320.872 305.648 330.751 293.84 338.267C287.669 342.196 281.082 345.283 274.163 347.61C270.329 348.9 267.675 346.907 267.659 342.863C267.623 334.909 267.67 326.956 267.638 318.998C267.618 314.152 267.135 309.379 264.49 305.132C263.722 303.893 262.745 302.784 261.831 301.572C265.384 300.905 268.942 300.432 272.402 299.552C281.69 297.189 289.991 293.077 295.648 284.952C299.804 278.982 301.705 272.132 302.541 264.986C303.191 259.432 303.378 253.863 302.209 248.335C301.035 242.771 298.635 237.795 294.921 233.501C294.007 232.444 293.825 231.591 294.277 230.222C296.718 222.831 295.695 215.59 292.952 208.496C292.796 208.09 292.11 207.71 291.627 207.637C288.402 207.153 285.357 208.069 282.526 209.407C277.939 211.577 273.503 214.071 268.958 216.34C268.189 216.725 267.135 216.985 266.34 216.782C252.096 213.175 237.878 213.18 223.635 216.782C222.803 216.991 221.624 216.715 220.876 216.236C215.1 212.545 208.991 209.625 202.352 207.866C202.238 207.835 202.123 207.793 202.009 207.767C197.833 206.914 197.069 207.393 195.879 211.437C193.957 217.969 193.609 224.486 195.9 231.023C196.082 231.533 195.869 232.434 195.5 232.855C187.999 241.397 186.223 251.526 187.158 262.446C187.724 269.066 189.256 275.422 192.212 281.397C196.295 289.652 203.209 294.701 211.588 297.668C216.845 299.531 222.424 300.494 227.941 301.889C227.982 301.624 228.014 301.832 227.925 301.925C225.084 304.892 223.494 308.452 222.829 312.481C222.746 312.991 222.393 313.72 221.988 313.871C215.666 316.255 209.308 317.509 203.058 313.683C200.217 311.945 198.144 309.436 196.472 306.584C193.848 302.108 190.15 298.865 185.178 297.387C183.392 296.856 181.35 296.991 179.444 297.1C178.14 297.179 177.714 298.152 178.586 299.25C179.392 300.26 180.212 301.4 181.288 302.019C186.072 304.778 188.752 309.186 190.939 313.985C192.243 316.843 193.36 319.763 195.781 321.965C199.635 325.468 204.3 326.79 209.308 327.008C213.541 327.196 217.796 327.045 222.237 327.045C222.232 326.987 222.32 327.43 222.325 327.877C222.388 332.687 222.455 337.491 222.486 342.3C222.518 347.006 219.702 348.952 215.245 347.401C192.145 339.365 175.189 324.146 163.88 302.639C155.361 286.446 152.665 269.046 154.592 250.885C156.608 231.872 164.114 215.231 176.644 200.954C189.734 186.031 206.035 176.111 225.515 172.144C253.815 166.377 279.664 172.17 302.297 190.393C319.455 204.212 330.073 222.185 334.359 243.843C334.992 247.034 335.231 250.302 335.662 253.535C335.746 254.17 335.886 254.794 336 255.424V266.11Z" fill="#B78B00"/>
<path opacity="0.1" fill-rule="evenodd" clip-rule="evenodd" d="M178 156C164.098 184.894 133.216 201.577 101.449 197.35L37.2517 188.807C33.1637 170.741 79.704 170.498 117.006 165.713C148.814 161.634 178 156 178 156Z" fill="#FFDA25"/>
<path opacity="0.1" fill-rule="evenodd" clip-rule="evenodd" d="M320 156C334 184.894 365.102 201.577 397.094 197.35L461.747 188.807C465.864 170.741 418.993 170.498 381.426 165.713C349.393 161.634 320 156 320 156Z" fill="#FFDA25"/>
<path opacity="0.1" fill-rule="evenodd" clip-rule="evenodd" d="M176 158.994C207.798 154.467 233.085 129.978 238.685 98.2943L250 34.2766C234 24.8768 219.647 69.3383 203.772 103.584C190.234 132.784 176.006 159 176.006 159L176 158.994Z" fill="#FFDA25"/>
<path opacity="0.1" fill-rule="evenodd" clip-rule="evenodd" d="M324 158.994C292.2 154.467 266.911 129.978 261.31 98.2943L250 34.2766C266.001 24.8768 280.355 69.3383 296.231 103.584C309.771 132.784 324 159 324 159V158.994Z" fill="#FFDA25"/>
</svg>
