<svg width="500" height="479" viewBox="0 0 500 479" fill="none" xmlns="http://www.w3.org/2000/svg">
<path fill-rule="evenodd" clip-rule="evenodd" d="M250.03 32C254.134 32 258.154 33.1391 261.634 35.2986C265.119 37.4582 267.926 40.5491 269.74 44.2156L324.867 155.734L448.193 173.622C452.249 174.209 456.061 175.918 459.19 178.552C462.324 181.186 464.655 184.645 465.922 188.537C467.189 192.429 467.344 196.593 466.362 200.562C465.381 204.531 463.305 208.15 460.373 211.01L371.144 297.824L392.204 420.36C392.9 424.395 392.448 428.536 390.907 432.327C389.361 436.118 386.786 439.399 383.473 441.807C380.154 444.21 376.235 445.646 372.143 445.942C368.057 446.239 363.965 445.385 360.337 443.48L250.018 385.606L139.699 443.48C136.071 445.379 131.985 446.233 127.9 445.937C123.814 445.64 119.894 444.21 116.576 441.807C113.263 439.405 110.688 436.124 109.141 432.339C107.595 428.553 107.143 424.412 107.827 420.384L128.917 297.789L39.6514 211.01C36.7074 208.156 34.6258 204.537 33.6445 200.556C32.6572 196.581 32.8059 192.411 34.0787 188.513C35.3455 184.621 37.6828 181.156 40.8231 178.516C43.9633 175.876 47.7816 174.173 51.8437 173.586L175.17 155.728L230.32 44.2215C232.134 40.5491 234.947 37.4641 238.427 35.3046C241.912 33.145 245.932 32 250.03 32.0059V32Z" fill="#E2BC44" stroke="#FFDA25" stroke-width="8" stroke-miterlimit="10"/>
<path opacity="0.1" fill-rule="evenodd" clip-rule="evenodd" d="M178 156C164.098 184.894 133.216 201.577 101.449 197.35L37.2517 188.807C33.1636 170.741 79.704 170.498 117.006 165.713C148.814 161.634 178 156 178 156V156Z" fill="#FFDA25"/>
<path opacity="0.1" fill-rule="evenodd" clip-rule="evenodd" d="M320 156C334 184.894 365.102 201.577 397.094 197.35L461.747 188.807C465.864 170.741 418.993 170.498 381.426 165.713C349.393 161.634 320 156 320 156V156Z" fill="#FFDA25"/>
<path opacity="0.1" fill-rule="evenodd" clip-rule="evenodd" d="M176 158.994C207.798 154.467 233.085 129.978 238.685 98.2943L250 34.2766C234 24.8768 219.647 69.3383 203.772 103.584C190.234 132.784 176.006 159 176.006 159L176 158.994Z" fill="#FFDA25"/>
<path opacity="0.1" fill-rule="evenodd" clip-rule="evenodd" d="M324 158.994C292.2 154.467 266.911 129.978 261.31 98.2943L250 34.2766C266.001 24.8768 280.355 69.3383 296.231 103.584C309.771 132.784 324 159 324 159V158.994Z" fill="#FFDA25"/>
</svg>
